<svg xmlns="http://www.w3.org/2000/svg" viewBox="0 0 1400 900" role="img" aria-labelledby="title desc">
  <title id="title">OncoGene TBX</title>
  <desc id="desc">Scientific thumbnail for OncoGene TBX tissue DNA and RNA profiling.</desc>
  <defs>
    <linearGradient id="bg" x1="0%" y1="0%" x2="100%" y2="100%">
      <stop offset="0%" stop-color="#7a0f42"/>
      <stop offset="55%" stop-color="#8f1c55"/>
      <stop offset="100%" stop-color="#4f0b2c"/>
    </linearGradient>
    <pattern id="grid" width="42" height="42" patternUnits="userSpaceOnUse">
      <path d="M 42 0 L 0 0 0 42" fill="none" stroke="#ffd9ed" stroke-opacity="0.12" stroke-width="1"/>
    </pattern>
    <linearGradient id="dnaA" x1="0%" y1="0%" x2="0%" y2="100%">
      <stop offset="0%" stop-color="#66d4de"/>
      <stop offset="100%" stop-color="#f08a2f"/>
    </linearGradient>
  </defs>

  <rect width="1400" height="900" fill="url(#bg)"/>
  <rect width="1400" height="900" fill="url(#grid)"/>
  <circle cx="165" cy="110" r="165" fill="#ffffff" fill-opacity="0.08"/>
  <circle cx="1220" cy="760" r="250" fill="#ffffff" fill-opacity="0.06"/>

  <g transform="translate(90 90)">
    <rect x="0" y="0" width="360" height="112" rx="30" fill="#f08a2f" fill-opacity="0.9"/>
    <text x="24" y="50" fill="#fff6ee" font-size="45" font-family="'Space Grotesk', Arial, sans-serif" font-weight="700">ONCOGENE</text>
    <text x="24" y="89" fill="#ffe6f3" font-size="28" letter-spacing="6" font-family="'IBM Plex Sans', Arial, sans-serif" font-weight="700">TBX</text>
  </g>

  <text x="94" y="306" fill="#f7d7e8" font-size="42" font-family="'IBM Plex Sans', Arial, sans-serif" font-weight="600">Tissue DNA + RNA Molecular Profiling</text>
  <text x="94" y="360" fill="#ffd9ef" font-size="32" font-family="'IBM Plex Sans', Arial, sans-serif">SNV • CNV • Fusion • Splice • Indel</text>

  <g transform="translate(805 98)">
    <path d="M160 10 C280 96 282 220 160 305 C38 391 40 520 160 610" fill="none" stroke="url(#dnaA)" stroke-width="9" stroke-linecap="round"/>
    <path d="M285 10 C165 96 163 220 285 305 C407 391 405 520 285 610" fill="none" stroke="#9be8ee" stroke-width="9" stroke-linecap="round"/>
    <g stroke="#e4fbff" stroke-opacity="0.85" stroke-width="4">
      <line x1="176" y1="55" x2="269" y2="55"/>
      <line x1="204" y1="118" x2="241" y2="118"/>
      <line x1="169" y1="182" x2="275" y2="182"/>
      <line x1="198" y1="246" x2="247" y2="246"/>
      <line x1="174" y1="309" x2="272" y2="309"/>
      <line x1="207" y1="374" x2="239" y2="374"/>
      <line x1="173" y1="438" x2="273" y2="438"/>
      <line x1="200" y1="502" x2="245" y2="502"/>
      <line x1="178" y1="566" x2="266" y2="566"/>
    </g>
  </g>

  <g transform="translate(90 502)">
    <rect x="0" y="0" width="650" height="250" rx="26" fill="#280a1a" fill-opacity="0.35" stroke="#efc5de" stroke-opacity="0.38"/>
    <g transform="translate(48 40)" fill="none" stroke="#ffdeee" stroke-width="7" stroke-linecap="round" stroke-linejoin="round">
      <path d="M56 0 V100 H130"/>
      <path d="M130 100 V152 H8"/>
      <rect x="22" y="152" width="148" height="28" rx="10"/>
      <line x1="84" y1="18" x2="137" y2="18"/>
    </g>
    <text x="252" y="90" fill="#fff0fa" font-size="35" font-family="'Space Grotesk', Arial, sans-serif" font-weight="700">Tissue-First Resolution</text>
    <text x="252" y="141" fill="#ffd9ec" font-size="27" font-family="'IBM Plex Sans', Arial, sans-serif">Deep profiling for diagnosis, therapy planning, and trial matching.</text>
    <text x="252" y="182" fill="#ffd9ec" font-size="27" font-family="'IBM Plex Sans', Arial, sans-serif">High tumor-content sequencing for confident variant detection.</text>
  </g>
</svg>
