<svg xmlns="http://www.w3.org/2000/svg" viewBox="0 0 1400 900" role="img" aria-labelledby="title desc">
  <title id="title">OncoGene Heme</title>
  <desc id="desc">Scientific thumbnail for OncoGene Heme hematological cancer profiling.</desc>
  <defs>
    <linearGradient id="bg" x1="0%" y1="0%" x2="100%" y2="100%">
      <stop offset="0%" stop-color="#aa4a15"/>
      <stop offset="55%" stop-color="#c96425"/>
      <stop offset="100%" stop-color="#6d2d0f"/>
    </linearGradient>
    <pattern id="grid" width="42" height="42" patternUnits="userSpaceOnUse">
      <path d="M 42 0 L 0 0 0 42" fill="none" stroke="#ffe3cd" stroke-opacity="0.12" stroke-width="1"/>
    </pattern>
    <linearGradient id="dnaA" x1="0%" y1="0%" x2="0%" y2="100%">
      <stop offset="0%" stop-color="#ffd39c"/>
      <stop offset="100%" stop-color="#53d0da"/>
    </linearGradient>
  </defs>

  <rect width="1400" height="900" fill="url(#bg)"/>
  <rect width="1400" height="900" fill="url(#grid)"/>
  <circle cx="132" cy="790" r="175" fill="#ffffff" fill-opacity="0.06"/>
  <circle cx="1250" cy="128" r="205" fill="#ffffff" fill-opacity="0.07"/>

  <g transform="translate(90 90)">
    <rect x="0" y="0" width="620" height="220" rx="42" fill="#7a0f42" fill-opacity="0.88"/>
    <text x="26" y="88" fill="#fff2f8" font-size="78" font-family="'Space Grotesk', Arial, sans-serif" font-weight="700">ONCOGENE</text>
    <text x="28" y="168" fill="#ffead2" font-size="52" letter-spacing="8" font-family="'IBM Plex Sans', Arial, sans-serif" font-weight="700">HEME</text>
  </g>

  <text x="94" y="390" fill="#ffe8d2" font-size="42" font-family="'IBM Plex Sans', Arial, sans-serif" font-weight="600">DNA + RNA Profiling for Hematological Cancers</text>
  <text x="94" y="444" fill="#ffd9b8" font-size="32" font-family="'IBM Plex Sans', Arial, sans-serif">Fusion genes, clonal evolution, risk and MRD markers</text>

  <g transform="translate(805 98)">
    <path d="M160 10 C280 96 282 220 160 305 C38 391 40 520 160 610" fill="none" stroke="url(#dnaA)" stroke-width="9" stroke-linecap="round"/>
    <path d="M285 10 C165 96 163 220 285 305 C407 391 405 520 285 610" fill="none" stroke="#ffe7c8" stroke-width="9" stroke-linecap="round"/>
    <g stroke="#fff4e6" stroke-opacity="0.85" stroke-width="4">
      <line x1="176" y1="55" x2="269" y2="55"/>
      <line x1="204" y1="118" x2="241" y2="118"/>
      <line x1="169" y1="182" x2="275" y2="182"/>
      <line x1="198" y1="246" x2="247" y2="246"/>
      <line x1="174" y1="309" x2="272" y2="309"/>
      <line x1="207" y1="374" x2="239" y2="374"/>
      <line x1="173" y1="438" x2="273" y2="438"/>
      <line x1="200" y1="502" x2="245" y2="502"/>
      <line x1="178" y1="566" x2="266" y2="566"/>
    </g>
  </g>

  <g transform="translate(90 502)">
    <rect x="0" y="0" width="650" height="250" rx="26" fill="#44210e" fill-opacity="0.5" stroke="#ffd8b2" stroke-opacity="0.46"/>
    <g transform="translate(44 36)" fill="none" stroke="#fff3e5" stroke-width="7" stroke-linecap="round" stroke-linejoin="round">
      <circle cx="66" cy="76" r="30"/>
      <circle cx="124" cy="66" r="36"/>
      <circle cx="96" cy="122" r="34"/>
      <circle cx="162" cy="118" r="24"/>
      <line x1="66" y1="76" x2="96" y2="122"/>
      <line x1="124" y1="66" x2="96" y2="122"/>
      <line x1="124" y1="66" x2="162" y2="118"/>
    </g>
    <text x="252" y="90" fill="#fff5e8" font-size="35" font-family="'Space Grotesk', Arial, sans-serif" font-weight="700">Comprehensive Blood Cancer Insights</text>
    <text x="252" y="141" fill="#ffe7d1" font-size="27" font-family="'IBM Plex Sans', Arial, sans-serif">Coverage for AML, ALL, MDS, MPN, and lymphoma workflows.</text>
    <text x="252" y="182" fill="#ffe7d1" font-size="27" font-family="'IBM Plex Sans', Arial, sans-serif">Supports prognosis, therapy stratification, and MRD assessment.</text>
  </g>
</svg>
