<svg xmlns="http://www.w3.org/2000/svg" viewBox="0 0 1400 900" role="img" aria-labelledby="title desc">
  <title id="title">OncoGene LBX</title>
  <desc id="desc">Scientific thumbnail for OncoGene LBX liquid biopsy profiling.</desc>
  <defs>
    <linearGradient id="bg" x1="0%" y1="0%" x2="100%" y2="100%">
      <stop offset="0%" stop-color="#0f5e8f"/>
      <stop offset="55%" stop-color="#1277a8"/>
      <stop offset="100%" stop-color="#0a3555"/>
    </linearGradient>
    <pattern id="grid" width="42" height="42" patternUnits="userSpaceOnUse">
      <path d="M 42 0 L 0 0 0 42" fill="none" stroke="#d6f4ff" stroke-opacity="0.12" stroke-width="1"/>
    </pattern>
    <linearGradient id="dnaA" x1="0%" y1="0%" x2="0%" y2="100%">
      <stop offset="0%" stop-color="#6ad9e2"/>
      <stop offset="100%" stop-color="#f08a2f"/>
    </linearGradient>
  </defs>

  <rect width="1400" height="900" fill="url(#bg)"/>
  <rect width="1400" height="900" fill="url(#grid)"/>
  <circle cx="120" cy="770" r="190" fill="#ffffff" fill-opacity="0.06"/>
  <circle cx="1260" cy="130" r="210" fill="#ffffff" fill-opacity="0.08"/>

  <g transform="translate(90 90)">
    <rect x="0" y="0" width="250" height="56" rx="28" fill="#147f86" fill-opacity="0.92"/>
    <text x="27" y="38" fill="#eaffff" font-size="31" font-family="'Space Grotesk', Arial, sans-serif" font-weight="700">ONCOGENE</text>
  </g>

  <text x="90" y="305" fill="#ebfbff" font-size="118" font-family="'Space Grotesk', Arial, sans-serif" font-weight="700">LBX</text>
  <text x="94" y="365" fill="#d3f3ff" font-size="42" font-family="'IBM Plex Sans', Arial, sans-serif" font-weight="600">Blood-Based DNA + RNA Profiling</text>
  <text x="94" y="420" fill="#c4ebfb" font-size="32" font-family="'IBM Plex Sans', Arial, sans-serif">Non-invasive signal capture for dynamic monitoring</text>

  <g transform="translate(805 98)">
    <path d="M160 10 C280 96 282 220 160 305 C38 391 40 520 160 610" fill="none" stroke="url(#dnaA)" stroke-width="9" stroke-linecap="round"/>
    <path d="M285 10 C165 96 163 220 285 305 C407 391 405 520 285 610" fill="none" stroke="#b9f1f6" stroke-width="9" stroke-linecap="round"/>
    <g stroke="#ecfeff" stroke-opacity="0.85" stroke-width="4">
      <line x1="176" y1="55" x2="269" y2="55"/>
      <line x1="204" y1="118" x2="241" y2="118"/>
      <line x1="169" y1="182" x2="275" y2="182"/>
      <line x1="198" y1="246" x2="247" y2="246"/>
      <line x1="174" y1="309" x2="272" y2="309"/>
      <line x1="207" y1="374" x2="239" y2="374"/>
      <line x1="173" y1="438" x2="273" y2="438"/>
      <line x1="200" y1="502" x2="245" y2="502"/>
      <line x1="178" y1="566" x2="266" y2="566"/>
    </g>
  </g>

  <g transform="translate(90 502)">
    <rect x="0" y="0" width="650" height="250" rx="26" fill="#08283d" fill-opacity="0.5" stroke="#9fdff4" stroke-opacity="0.42"/>
    <g transform="translate(54 40)" fill="none" stroke="#dff8ff" stroke-width="7" stroke-linecap="round" stroke-linejoin="round">
      <path d="M62 6 C36 40 33 63 62 95 C91 63 88 40 62 6 Z"/>
      <line x1="62" y1="95" x2="62" y2="170"/>
      <line x1="20" y1="124" x2="104" y2="124"/>
      <circle cx="156" cy="59" r="13"/>
      <circle cx="196" cy="89" r="11"/>
      <circle cx="154" cy="121" r="10"/>
      <line x1="168" y1="67" x2="188" y2="81"/>
      <line x1="166" y1="112" x2="184" y2="96"/>
    </g>
    <text x="252" y="90" fill="#ebfbff" font-size="35" font-family="'Space Grotesk', Arial, sans-serif" font-weight="700">Liquid Biopsy Intelligence</text>
    <text x="252" y="141" fill="#d8f3fd" font-size="27" font-family="'IBM Plex Sans', Arial, sans-serif">Track tumor heterogeneity and resistance without invasive sampling.</text>
    <text x="252" y="182" fill="#d8f3fd" font-size="27" font-family="'IBM Plex Sans', Arial, sans-serif">Fast turnaround for treatment-response decisions.</text>
  </g>
</svg>
