<svg xmlns="http://www.w3.org/2000/svg" viewBox="0 0 1400 900" role="img" aria-labelledby="title desc">
  <title id="title">OncoGene MRD</title>
  <desc id="desc">Scientific thumbnail for OncoGene MRD methylation ctDNA monitoring.</desc>
  <defs>
    <linearGradient id="bg" x1="0%" y1="0%" x2="100%" y2="100%">
      <stop offset="0%" stop-color="#0f5d26"/>
      <stop offset="55%" stop-color="#1b7f38"/>
      <stop offset="100%" stop-color="#08391a"/>
    </linearGradient>
    <pattern id="grid" width="42" height="42" patternUnits="userSpaceOnUse">
      <path d="M 42 0 L 0 0 0 42" fill="none" stroke="#d7f8df" stroke-opacity="0.12" stroke-width="1"/>
    </pattern>
    <linearGradient id="dnaA" x1="0%" y1="0%" x2="0%" y2="100%">
      <stop offset="0%" stop-color="#61d07a"/>
      <stop offset="100%" stop-color="#f08a2f"/>
    </linearGradient>
  </defs>

  <rect width="1400" height="900" fill="url(#bg)"/>
  <rect width="1400" height="900" fill="url(#grid)"/>
  <circle cx="180" cy="120" r="165" fill="#ffffff" fill-opacity="0.07"/>
  <circle cx="1265" cy="760" r="220" fill="#ffffff" fill-opacity="0.06"/>

  <g transform="translate(90 90)">
    <rect x="0" y="0" width="250" height="56" rx="28" fill="#147f86" fill-opacity="0.9"/>
    <text x="27" y="38" fill="#e9ffff" font-size="31" font-family="'Space Grotesk', Arial, sans-serif" font-weight="700">ONCOGENE</text>
  </g>

  <text x="90" y="305" fill="#ecffef" font-size="118" font-family="'Space Grotesk', Arial, sans-serif" font-weight="700">MRD</text>
  <text x="94" y="365" fill="#d5f5db" font-size="42" font-family="'IBM Plex Sans', Arial, sans-serif" font-weight="600">Methylation-Based ctDNA MRD Monitoring</text>
  <text x="94" y="420" fill="#c8efd2" font-size="32" font-family="'IBM Plex Sans', Arial, sans-serif">Detect residual disease early and predict relapse sooner</text>

  <g transform="translate(805 98)">
    <path d="M160 10 C280 96 282 220 160 305 C38 391 40 520 160 610" fill="none" stroke="url(#dnaA)" stroke-width="9" stroke-linecap="round"/>
    <path d="M285 10 C165 96 163 220 285 305 C407 391 405 520 285 610" fill="none" stroke="#bdf2c9" stroke-width="9" stroke-linecap="round"/>
    <g stroke="#effff2" stroke-opacity="0.85" stroke-width="4">
      <line x1="176" y1="55" x2="269" y2="55"/>
      <line x1="204" y1="118" x2="241" y2="118"/>
      <line x1="169" y1="182" x2="275" y2="182"/>
      <line x1="198" y1="246" x2="247" y2="246"/>
      <line x1="174" y1="309" x2="272" y2="309"/>
      <line x1="207" y1="374" x2="239" y2="374"/>
      <line x1="173" y1="438" x2="273" y2="438"/>
      <line x1="200" y1="502" x2="245" y2="502"/>
      <line x1="178" y1="566" x2="266" y2="566"/>
    </g>
  </g>

  <g transform="translate(90 502)">
    <rect x="0" y="0" width="650" height="250" rx="26" fill="#072514" fill-opacity="0.52" stroke="#afe2bc" stroke-opacity="0.45"/>
    <g transform="translate(42 36)" fill="none" stroke="#e9fff0" stroke-width="7" stroke-linecap="round" stroke-linejoin="round">
      <circle cx="74" cy="82" r="58"/>
      <circle cx="74" cy="82" r="32"/>
      <line x1="74" y1="8" x2="74" y2="156"/>
      <line x1="0" y1="82" x2="148" y2="82"/>
      <polyline points="178,168 215,122 248,142 282,92 318,114"/>
      <circle cx="318" cy="114" r="8" fill="#e9fff0"/>
    </g>
    <text x="252" y="90" fill="#ecfff0" font-size="35" font-family="'Space Grotesk', Arial, sans-serif" font-weight="700">MRD Detection at Very Low Signal</text>
    <text x="252" y="141" fill="#d8f7df" font-size="27" font-family="'IBM Plex Sans', Arial, sans-serif">High-sensitivity methylation signatures for residual disease tracking.</text>
    <text x="252" y="182" fill="#d8f7df" font-size="27" font-family="'IBM Plex Sans', Arial, sans-serif">Longitudinal response monitoring after therapy.</text>
  </g>
</svg>
